<?xml version="1.0" encoding="utf-8"?>
<!-- Generator: Adobe Illustrator 25.0.1, SVG Export Plug-In . SVG Version: 6.00 Build 0)  -->
<svg version="1.1" id="레이어_1" xmlns="http://www.w3.org/2000/svg" xmlns:xlink="http://www.w3.org/1999/xlink" x="0px"
	 y="0px" viewBox="0 0 65.7 65.7" style="enable-background:new 0 0 65.7 65.7;" xml:space="preserve">
<style type="text/css">
	.st0{fill:none;}
	.st1{fill:#228B22;}
</style>
<g>
	<path class="st0" d="M38.6,31.1c0,0.4,0,0.8,0,1.3c0,0.4-0.1,0.8-0.2,1.2c-0.1,0.4-0.3,0.7-0.5,0.9c-0.3,0.2-0.6,0.4-1.1,0.4
		c-0.5,0-0.8-0.1-1.1-0.4c-0.3-0.2-0.5-0.6-0.6-1c-0.1-0.4-0.2-0.8-0.2-1.2c0-0.5,0-0.9,0-1.3V16.5h-3.9V31c0,0.4,0,0.8-0.1,1.3
		c0,0.5-0.1,0.9-0.3,1.3c-0.1,0.4-0.3,0.7-0.6,1c-0.2,0.2-0.6,0.4-1,0.4c-0.5,0-0.9-0.1-1.2-0.4c-0.3-0.2-0.5-0.5-0.6-0.9
		c-0.1-0.4-0.2-0.8-0.2-1.2c0-0.4,0-0.9,0-1.3V16.5h-3.8v14.7c0,2.4,0.4,4.2,1.2,5.6c0.8,1.3,2.2,2,4.3,2c1.1,0,1.9-0.2,2.6-0.6
		c0.7-0.4,1.2-1,1.6-1.7c0.3,0.7,0.8,1.3,1.5,1.7c0.7,0.4,1.6,0.6,2.7,0.6c2,0,3.4-0.7,4.2-2c0.8-1.3,1.2-3.2,1.2-5.6V16.5h-3.9
		V31.1z"/>
	<path class="st1" d="M61,31L32.9,4.3L4.7,31v28.1h20.7v-8.4h0.1c0-4.1,3.3-7.4,7.4-7.4c4.1,0,7.4,3.3,7.4,7.4c0,0.3,0,0.7-0.1,1
		v7.4H61V31z M42.5,31.1c0,2.4-0.4,4.3-1.2,5.6c-0.8,1.3-2.2,2-4.2,2c-1.1,0-2-0.2-2.7-0.6c-0.7-0.4-1.2-1-1.5-1.7
		c-0.4,0.7-0.9,1.3-1.6,1.7c-0.7,0.4-1.5,0.6-2.6,0.6c-2.1,0-3.5-0.7-4.3-2c-0.8-1.3-1.2-3.2-1.2-5.6V16.5H27V31c0,0.4,0,0.8,0,1.3
		c0,0.4,0.1,0.8,0.2,1.2c0.1,0.4,0.3,0.7,0.6,0.9c0.3,0.2,0.7,0.4,1.2,0.4c0.4,0,0.8-0.1,1-0.4c0.2-0.2,0.4-0.6,0.6-1
		c0.1-0.4,0.2-0.8,0.3-1.3c0-0.5,0.1-0.9,0.1-1.3V16.5h3.9V31c0,0.4,0,0.8,0,1.3c0,0.5,0.1,0.9,0.2,1.2c0.1,0.4,0.3,0.7,0.6,1
		c0.3,0.2,0.6,0.4,1.1,0.4c0.5,0,0.9-0.1,1.1-0.4c0.3-0.2,0.4-0.5,0.5-0.9c0.1-0.4,0.2-0.8,0.2-1.2c0-0.4,0-0.9,0-1.3V16.5h3.9V31.1
		z"/>
</g>
</svg>
