<?xml version="1.0" encoding="utf-8"?>
<!-- Generator: Adobe Illustrator 25.0.1, SVG Export Plug-In . SVG Version: 6.00 Build 0)  -->
<svg version="1.1" id="레이어_1" xmlns="http://www.w3.org/2000/svg" xmlns:xlink="http://www.w3.org/1999/xlink" x="0px"
	 y="0px" viewBox="0 0 65.73 65.73" style="enable-background:new 0 0 65.73 65.73;" xml:space="preserve">
<style type="text/css">
	.st0{fill:#FFFFFF;}
</style>
<g>
	<g>
		<path class="st0" d="M43.28,10.72c0,5.53-4.48,10.01-10.01,10.01c-5.52,0-10.01-4.48-10.01-10.01c0-5.53,4.48-10.01,10.01-10.01
			C38.8,0.72,43.28,5.2,43.28,10.72z"/>
		<g>
			<path class="st0" d="M51.29,29.74h-0.14c0.05,0.07,0.09,0.15,0.14,0.22V29.74z"/>
			<path class="st0" d="M15.26,29.74v0.22c0.04-0.07,0.09-0.15,0.14-0.22H15.26z"/>
			<path class="st0" d="M51.15,29.74c-3.7-6-10.31-10.01-17.88-10.01c-7.56,0-14.17,4.01-17.87,10.01h-0.14v10h36.03v-10H51.15z"/>
		</g>
	</g>
	<g>
		<g>
			<path class="st0" d="M26.02,63.64H13.06v-1.95h5.32v-1.8h2.17v1.8h5.47V63.64z M22.41,54.92v-1.16h-8.11v-1.97h10.45v4.7h-8.11
				v1.11h8.11v1.57H14.31v-4.26H22.41z"/>
			<path class="st0" d="M27.39,63.62v-2.07h12.52v2.07H27.39z M38.58,53.72c0,2.28-0.33,3.93-0.65,5.08
				c-0.19,0.67-0.41,1.23-0.63,1.69h-2.48c1.51-2.51,1.37-5.59,1.28-6.76h-7.53V51.8h10.01V53.72z"/>
			<path class="st0" d="M46.17,51.07c1.3,0,2.39,1.08,2.39,2.46V56c0,1.37-1.09,2.48-2.39,2.48h-2.33c-1.3,0-2.48-1.11-2.48-2.48
				v-2.46c0-1.39,1.18-2.46,2.48-2.46H46.17z M42.9,60.14h2.34v2.79h7.73v2.09H42.9V60.14z M46.44,54.01c0-0.6-0.45-1.04-1.04-1.04
				h-0.8c-0.6,0-1.11,0.44-1.11,1.04v1.49c0,0.62,0.51,1.06,1.11,1.06h0.8c0.6,0,1.04-0.44,1.04-1.06V54.01z M50.7,59.93v-9.15h2.28
				v9.15H50.7z"/>
		</g>
	</g>
</g>
</svg>
