<?xml version="1.0" encoding="utf-8"?>
<!-- Generator: Adobe Illustrator 25.0.1, SVG Export Plug-In . SVG Version: 6.00 Build 0)  -->
<svg version="1.1" id="레이어_1" xmlns="http://www.w3.org/2000/svg" xmlns:xlink="http://www.w3.org/1999/xlink" x="0px"
	 y="0px" viewBox="0 0 65.7 65.7" style="enable-background:new 0 0 65.7 65.7;" xml:space="preserve" fill="currentColor">
<style type="text/css">
	.st0{fill:#FFFFFF;}
</style>
<g>
	<g>
		<path class="st0" d="M42.9,10.6c0,5.5-4.5,10-10,10c-5.5,0-10-4.5-10-10c0-5.5,4.5-10,10-10C38.4,0.6,42.9,5.1,42.9,10.6z"/>
		<g>
			<path class="st0" d="M50.9,29.6h-0.1c0,0.1,0.1,0.1,0.1,0.2V29.6z"/>
			<path class="st0" d="M14.9,29.6v0.2c0-0.1,0.1-0.1,0.1-0.2H14.9z"/>
			<path class="st0" d="M50.7,29.6c-3.7-6-10.3-10-17.9-10c-7.6,0-14.2,4-17.9,10h-0.1v10h36v-10H50.7z"/>
		</g>
	</g>
	<g>
		<g>
			<path class="st0" d="M18.1,63.5h-13v-2h5.3v-1.8h2.2v1.8h5.5V63.5z M14.5,54.8v-1.2H6.4v-2h10.5v4.7H8.8v1.1h8.1v1.6H6.4v-4.3
				H14.5z"/>
			<path class="st0" d="M19.5,63.5v-2.1H32v2.1H19.5z M30.7,53.6c0,2.3-0.3,3.9-0.6,5.1c-0.2,0.7-0.4,1.2-0.6,1.7h-2.5
				c1.5-2.5,1.4-5.6,1.3-6.8h-7.5v-1.9h10V53.6z"/>
			<path class="st0" d="M36.5,61.8c-1.4,0-2.9-0.7-2.9-2.9v-4.2c0-1.8,0.8-3.2,3.3-3.2h1c1.9,0,3.2,1.1,3.2,3.2v4
				c0,1.9-1.5,3.1-2.9,3.1H36.5z M37.6,60c0.8,0,1.4-0.8,1.4-1.5V55c0-0.8-0.4-1.7-1.4-1.7h-0.5c-1,0-1.5,0.8-1.5,1.6v3.5
				c0,0.5,0.1,1.6,1.5,1.6H37.6z M46.7,57.5h-1.9V65h-2.2V50.7h2.2v4.6h1.9V57.5z"/>
			<path class="st0" d="M60.6,58.7h-5.5V60h-2.2v-1.3h-5.2v-1.9h12.8V58.7z M56.7,50.5c1.1,0,2.7,0.8,2.7,2.3v1.1
				c0,1.4-1.2,2.2-2.9,2.2h-4.7c-1.4,0-2.7-0.9-2.7-2.1v-1.4c0-1.4,1.5-2.2,2.6-2.2H56.7z M55.2,60.7c0.9,1.6,2.4,3.4,3.3,4.4H56
				l-1.2-1.6l-0.6-0.8l-2,2.4h-2.6c1-1.2,1.9-2.3,2.5-3.1c0.4-0.5,0.7-0.9,1-1.3H55.2z M56.3,54.4c0.7,0,1.1-0.5,1.1-1.1
				c0-0.5-0.4-1.1-1.1-1.1h-4.1c-0.7,0-1.1,0.5-1.1,1.1c0,0.5,0.4,1.1,1.1,1.1H56.3z"/>
		</g>
	</g>
</g>
</svg>
