<?xml version="1.0" encoding="utf-8"?>
<!-- Generator: Adobe Illustrator 25.0.1, SVG Export Plug-In . SVG Version: 6.00 Build 0)  -->
<svg version="1.1" id="레이어_1" xmlns="http://www.w3.org/2000/svg" xmlns:xlink="http://www.w3.org/1999/xlink" x="0px"
	 y="0px" viewBox="0 0 65.73 65.73" style="enable-background:new 0 0 65.73 65.73;" xml:space="preserve">
<style type="text/css">
	.st0{fill:#FFFFFF;}
</style>
<g>
	<g>
		<g>
			<path class="st0" d="M45.96,26.54c-1.61-1.31-2.54-3.01-2.88-5.05c-0.46-2.77-0.92-5.53-1.38-8.3c-0.69-4.14-4.19-7.25-8.27-7.36
				c-4.41-0.12-8.09,2.69-8.96,6.92c-0.47,2.27-0.85,4.57-1.17,6.87c-0.37,2.73-1.01,5.29-3.32,7.12c-1.02,0.81-1.28,1.78-0.92,2.77
				c0.37,1.01,1.23,1.53,2.59,1.53c3.77,0,7.55,0,11.32,0c3.86,0,7.72,0.01,11.58,0c1.47,0,2.47-0.92,2.53-2.3
				C47.12,27.8,46.67,27.11,45.96,26.54z"/>
			<path class="st0" d="M47.91,24.63c-1.1-0.94-1.87-2.04-2.11-3.48c-0.47-2.8-0.88-5.6-1.4-8.39c-0.89-4.72-3.67-7.81-8.25-9.25
				c-0.57-0.18-1.16-0.26-1.71-0.39c-0.21-1.98-0.51-2.58-1.41-2.51c-1.63,0.12-1.34,1.45-1.42,2.52c-0.18,0.05-0.31,0.1-0.45,0.12
				c-4.93,0.89-8.51,4.38-9.43,9.28c-0.43,2.28-0.82,4.58-1.16,6.88c-0.3,2.09-0.77,4.01-2.56,5.45c-1.8,1.46-2.27,3.67-1.47,5.69
				c0.79,2.01,2.63,3.21,4.95,3.22c1.56,0,3.11,0,4.7,0c0.85,3.61,3.03,5.84,6.75,5.87c3.81,0.03,6.02-2.22,6.9-5.87
				c1.66,0,3.27,0.01,4.89,0c1.47-0.02,2.71-0.57,3.7-1.64C50.46,29.94,50.26,26.64,47.91,24.63z M33.16,39.7
				c-1.88,0.1-3.64-1.14-4.06-3.14c2.63,0,5.2,0,7.77,0C36.65,37.56,35.05,39.59,33.16,39.7z M44.55,31.03
				c-3.86,0.01-7.72,0-11.58,0c-3.77,0-7.55,0-11.32,0c-1.36,0-2.22-0.51-2.59-1.53c-0.36-1-0.1-1.96,0.92-2.77
				c2.31-1.83,2.95-4.39,3.32-7.12c0.32-2.3,0.7-4.6,1.17-6.87c0.86-4.23,4.54-7.04,8.96-6.92c4.09,0.11,7.58,3.22,8.27,7.36
				c0.46,2.77,0.92,5.54,1.38,8.3c0.34,2.04,1.28,3.74,2.88,5.05c0.7,0.57,1.15,1.26,1.11,2.19C47.02,30.11,46.02,31.03,44.55,31.03
				z"/>
		</g>
	</g>
	<g>
		<path class="st0" d="M9.58,50.91c1.23,0,2.28,1.04,2.28,2.34v2.38c0,1.3-1.04,2.31-2.45,2.31H7.34c-1.23,0-2.31-0.91-2.31-2.21
			v-2.48c0-1.3,1.09-2.34,2.34-2.34H9.58z M6.32,61.31h7.77v-0.79H6.32v-1.39h10.14v3.7H8.49v0.68h7.97v1.61H6.32V61.31z
			 M9.84,53.73c0-0.6-0.43-1.01-0.99-1.01H8.11c-0.56,0-1.08,0.41-1.08,1.01v1.4c0,0.57,0.51,0.99,1.08,0.99h0.74
			c0.56,0,0.99-0.43,0.99-0.99V53.73z M18.31,55.55h-1.97v2.67h-2.16V50.5h2.16v3.03h1.97V55.55z"/>
		<path class="st0" d="M27.08,56.62v1.75h-7.41v-4.29h4.98v-0.99h-4.98v-1.75h7.06v4.11h-4.96v1.18H27.08z M31.44,59.69v5.22h-10.4
			v-5.22H31.44z M29.49,61.48h-6.47v1.61h6.47V61.48z M31.37,50.5v8.06h-2.19V50.5H31.37z"/>
		<path class="st0" d="M39.73,59.51v2.21h-6.14v-9.41h2.21v7.2H39.73z M46.25,50.69v14.06h-2.09v-7.24h-1.42l0.03,7.24h-2.17V50.69
			h2.14v4.65h1.42v-4.65H46.25z"/>
		<path class="st0" d="M52.71,51.22c1.23,0,2.26,1.03,2.26,2.31v2.31c0,1.3-1.03,2.34-2.26,2.34h-2.17c-1.23,0-2.33-1.04-2.33-2.34
			v-2.31c0-1.28,1.09-2.31,2.33-2.31H52.71z M52.97,53.99c0-0.56-0.41-0.99-0.97-0.99h-0.74c-0.56,0-1.06,0.43-1.06,0.99v1.42
			c0,0.53,0.5,0.97,1.06,0.97H52c0.56,0,0.97-0.44,0.97-0.97V53.99z M60.51,61.77c-0.02,0.84-0.17,1.62-0.36,2.19
			c-0.1,0.34-0.22,0.65-0.34,0.94h-2.1c0.39-0.75,0.58-1.52,0.67-2.12c0.05-0.36,0.07-0.68,0.05-1.01H50.2v-1.95h10.31V61.77z
			 M60.53,50.54v8.23h-2.39v-1.4h-2.41v-1.78h2.41V54.2h-2.41v-1.78h2.41v-1.88H60.53z"/>
	</g>
</g>
</svg>
