<?xml version="1.0" encoding="utf-8"?>
<!-- Generator: Adobe Illustrator 25.0.1, SVG Export Plug-In . SVG Version: 6.00 Build 0)  -->
<svg version="1.1" id="레이어_1" xmlns="http://www.w3.org/2000/svg" xmlns:xlink="http://www.w3.org/1999/xlink" x="0px"
	 y="0px" viewBox="0 0 20 20" style="enable-background:new 0 0 20 20;" xml:space="preserve">
<style type="text/css">
	.st0{fill:#228B22;}
</style>
<g>
	<path class="st0" d="M15.2,14.06l-2.23-2.23c0.43-0.7,0.65-1.5,0.65-2.32c0-2.45-1.99-4.44-4.44-4.44c-2.45,0-4.44,1.99-4.44,4.44
		c0,2.45,1.99,4.44,4.44,4.44c1.15,0,2.23-0.43,3.06-1.22l2.15,2.15c0.04,0.04,0.1,0.06,0.16,0.06s0.11-0.02,0.16-0.06l0.5-0.5
		C15.28,14.28,15.28,14.14,15.2,14.06z M12.02,9.59c0,1.48-1.21,2.69-2.69,2.69s-2.69-1.21-2.69-2.69c0-1.48,1.21-2.69,2.69-2.69
		S12.02,8.11,12.02,9.59z"/>
	<g>
		<g>
			<path class="st0" d="M2.5,8c-0.55,0-1-0.45-1-1V2.08c0-0.55,0.45-1,1-1h4.03c0.55,0,1,0.45,1,1c0,0.55-0.45,1-1,1H3.5V7
				C3.5,7.55,3.05,8,2.5,8z"/>
		</g>
		<g>
			<path class="st0" d="M17.5,7.92c0.55,0,1-0.45,1-1V2c0-0.55-0.45-1-1-1h-4.04c-0.55,0-1,0.45-1,1c0,0.55,0.45,1,1,1h3.04v3.92
				C16.5,7.47,16.95,7.92,17.5,7.92z"/>
		</g>
		<g>
			<path class="st0" d="M2.5,12c-0.55,0-1,0.45-1,1v4.92c0,0.55,0.45,1,1,1h4.03c0.55,0,1-0.45,1-1c0-0.55-0.45-1-1-1H3.5V13
				C3.5,12.45,3.05,12,2.5,12z"/>
		</g>
		<g>
			<path class="st0" d="M17.5,12.08c0.55,0,1,0.45,1,1V18c0,0.55-0.45,1-1,1h-4.04c-0.55,0-1-0.45-1-1c0-0.55,0.45-1,1-1h3.04v-3.92
				C16.5,12.53,16.95,12.08,17.5,12.08z"/>
		</g>
	</g>
</g>
</svg>
