<?xml version="1.0" encoding="utf-8"?>
<!-- Generator: Adobe Illustrator 25.0.1, SVG Export Plug-In . SVG Version: 6.00 Build 0)  -->
<svg version="1.1" id="레이어_1" xmlns="http://www.w3.org/2000/svg" xmlns:xlink="http://www.w3.org/1999/xlink" x="0px"
	 y="0px" viewBox="0 0 65.73 65.73" style="enable-background:new 0 0 65.73 65.73;" xml:space="preserve">
<style type="text/css">
	.st0{fill:#FFFFFF;}
	.st1{fill:#E9ECEF;}
</style>
<g>
	<g>
		<g>
			<path class="st0" d="M10.84,0.38v12.8v27.2h40v-27.2V0.38H10.84z M14.04,3.58h33.6v6.4h-33.6V3.58z M47.64,37.18h-33.6v-24h33.6
				V37.18z"/>
			<rect x="18.84" y="17.98" class="st0" width="4.8" height="4.8"/>
			<rect x="28.45" y="17.98" class="st0" width="4.8" height="4.8"/>
			<rect x="38.05" y="17.98" class="st0" width="4.8" height="4.8"/>
			<rect x="18.84" y="25.98" class="st0" width="4.8" height="4.8"/>
			<rect x="28.45" y="25.98" class="st0" width="4.8" height="4.8"/>
		</g>
		<g>
			<polygon class="st1" points="42.45,36.74 29.4,25.61 32.93,21.47 41.29,28.6 50.98,13.82 55.53,16.81 			"/>
		</g>
	</g>
	<g>
		<g>
			<path class="st0" d="M7.9,62.3c-1.21,0-2.89-0.67-2.89-2.93V54.9c0-1.8,1.21-3.11,2.67-3.11l1.15-0.02
				c1.71-0.05,2.81,1.21,2.81,3.03v4.48c0,1.76-1.35,2.98-2.74,3.03H7.9z M8.41,60.45c0.87,0,1.18-0.86,1.18-1.54v-3.73
				c0-0.75-0.38-1.39-1.08-1.39H8.12c-0.68,0-1.09,0.68-1.09,1.45v3.73c0,0.51,0.27,1.5,1.15,1.5L8.41,60.45z M13.51,50.94h1.95
				v14.39h-1.95v-4.91h-1.4v-1.97h1.4v-2.29h-1.4v-1.95h1.4V50.94z M18.23,50.94v14.39h-1.78V50.94H18.23z"/>
			<path class="st0" d="M24.76,51.63c1.25,0,2.29,1.04,2.29,2.34v2.36c0,1.32-1.04,2.36-2.29,2.36h-2.21
				c-1.23,0-2.36-1.04-2.36-2.36v-2.36c0-1.3,1.13-2.34,2.36-2.34H24.76z M31.45,62.18c-0.02,0.87-0.19,1.62-0.38,2.22
				c-0.1,0.34-0.22,0.65-0.34,0.94h-2.12c0.39-0.77,0.58-1.56,0.67-2.16c0.05-0.36,0.07-0.68,0.07-1.01h-8.02v-1.97h10.13V62.18z
				 M25.04,54.45c0-0.6-0.41-1.01-1.01-1.01h-0.74c-0.6,0-1.09,0.41-1.09,1.01v1.42c0,0.56,0.5,1.01,1.09,1.01h0.74
				c0.6,0,1.01-0.44,1.01-1.01V54.45z M31.26,55.68h1.52v1.73h-1.52v1.95h-2.05v-8.42h2.05v1.85h1.54v1.76h-1.54V55.68z"/>
			<path class="st0" d="M42.24,51.68v1.59h-0.86c0.07,0.17,0.1,0.34,0.1,0.53v1.25c0,0.96-0.96,1.8-2.1,1.85v1.06h3.73v1.8H34v-1.8
				l3.13-0.03V56.9c-1.15-0.05-2.17-0.87-2.17-1.83V53.8c0-0.19,0.03-0.36,0.1-0.53h-0.75v-1.59h2.79v-1.15h2.36v1.15H42.24z
				 M46.25,60.75v1.62c-0.02,0.84-0.22,1.57-0.41,2.1c-0.12,0.31-0.26,0.58-0.39,0.84h-2.27c0.39-0.75,0.56-1.4,0.63-1.86
				c0.05-0.27,0.05-0.51,0.02-0.74h-8.28v-1.97H46.25z M39.35,54.16c0-0.46-0.27-0.79-0.84-0.79h-0.53c-0.55,0-0.89,0.29-0.89,0.75
				v0.51c0,0.43,0.31,0.79,0.85,0.79h0.41c0.56,0,0.99-0.15,0.99-0.62V54.16z M48.3,55.73h-2.12v4.24H43.8v-9.03h2.38v2.79h2.12
				V55.73z"/>
			<path class="st0" d="M54.21,51.22c1.3,0,2.39,1.08,2.39,2.46v2.46c0,1.37-1.09,2.48-2.39,2.48h-2.33c-1.3,0-2.48-1.11-2.48-2.48
				v-2.46c0-1.39,1.18-2.46,2.48-2.46H54.21z M50.95,60.28h2.34v2.79h7.73v2.09H50.95V60.28z M54.49,54.16
				c0-0.6-0.44-1.04-1.04-1.04h-0.8c-0.6,0-1.11,0.44-1.11,1.04v1.49c0,0.62,0.51,1.06,1.11,1.06h0.8c0.6,0,1.04-0.44,1.04-1.06
				V54.16z M58.75,60.08v-9.15h2.27v9.15H58.75z"/>
		</g>
	</g>
</g>
</svg>
