<?xml version="1.0" encoding="utf-8"?>
<!-- Generator: Adobe Illustrator 25.0.1, SVG Export Plug-In . SVG Version: 6.00 Build 0)  -->
<svg version="1.1" id="레이어_1" xmlns="http://www.w3.org/2000/svg" xmlns:xlink="http://www.w3.org/1999/xlink" x="0px"
	 y="0px" viewBox="0 0 20 20" style="enable-background:new 0 0 20 20;" xml:space="preserve">
<style type="text/css">
	.st0{fill:#228B22;}
</style>
<path class="st0" d="M19.65,17.53l-4.14-4.14c0.8-1.29,1.21-2.77,1.21-4.3c0-4.54-3.7-8.24-8.24-8.24c-4.54,0-8.24,3.7-8.24,8.24
	c0,4.54,3.7,8.24,8.24,8.24c2.14,0,4.14-0.8,5.67-2.27l3.99,3.99c0.08,0.08,0.18,0.12,0.29,0.12c0.11,0,0.21-0.04,0.29-0.12
	l0.94-0.94C19.8,17.94,19.8,17.68,19.65,17.53z M13.74,9.25c0,2.75-2.24,4.99-4.99,4.99S3.76,12,3.76,9.25S6,4.26,8.75,4.26
	S13.74,6.5,13.74,9.25z"/>
</svg>
